<svg width="1902" height="840" viewBox="0 0 1902 840" fill="none" xmlns="http://www.w3.org/2000/svg">
<g clip-path="url(#clip0_38_27)">
<rect width="1902" height="840" fill="#FDEFDC"/>
<path d="M646.593 789.5C817.689 789.5 1170.17 789.5 1591.42 776.365C1884.29 767.234 2075.23 846.5 2029.23 191C2029.23 191 1887.25 431.763 1591.42 454C1173.3 485.429 457.282 789.5 646.593 789.5Z" fill="#D3DDC0"/>
<path d="M1347.38 815.209C1183.73 815.209 760.309 838.149 357.381 815.209C77.2563 799.26 -1.15974 861.402 -38.661 241.492C-39.0045 235.812 395.352 510.374 637.86 510.374C1041.9 510.374 1528.46 815.209 1347.38 815.209Z" fill="#D2DEC0"/>
<path d="M721.225 868C892.321 868 1244.8 868 1666.05 854.865C1958.92 845.733 2295.43 845.328 2032.48 613.147C2032.48 613.147 1826.64 537.872 1530.81 560.108C1112.69 591.537 531.914 868 721.225 868Z" fill="#7BA167"/>
<path d="M1299.5 903.64C1128.37 903.64 775.808 903.64 354.455 887.941C61.5204 877.027 -545.807 535.667 -17.3771 535.655C-11.1486 535.655 -26.0448 534.159 269.856 560.736C688.076 598.299 1488.86 903.64 1299.5 903.64Z" fill="#688B58"/>
<path d="M1884 412.724C1884 512.822 1844.71 537.705 1804.09 537.705C1763.46 537.705 1717.36 512.822 1717.36 412.724C1717.36 312.626 1763.46 207 1804.09 207C1844.71 207 1884 312.626 1884 412.724Z" fill="#DE8D41"/>
<path d="M1795.18 332.499C1803.16 346.543 1805.88 343.357 1806.84 342.539C1808.85 341.513 1808.53 341.14 1798.66 329.536C1787.04 319.265 1780.01 309.189 1779.05 310.007C1778.08 310.825 1785.31 320.895 1795.18 332.499Z" fill="#794836"/>
<path d="M1823.95 376.382C1798.99 391.035 1818.54 392.968 1807.53 387.961C1812 389.994 1810.47 398.305 1830.5 379.964C1847.73 358.242 1851.77 337.228 1850.06 335.364C1848.36 333.5 1843.98 358.041 1823.95 376.382Z" fill="#794836"/>
<path d="M1791.05 426.31C1824.08 446.546 1797.84 443.517 1811.7 437.801C1806.07 440.123 1809.75 455.123 1782.83 430.48C1759.32 401.694 1752.83 374.62 1754.91 372.346C1756.99 370.071 1764.13 401.667 1791.05 426.31Z" fill="#794836"/>
<path d="M1803.32 481.115C1795.53 602.171 1806.2 597.072 1809.47 597.072C1815.14 601.038 1815.14 597.308 1815.14 481.115C1809.47 364.025 1812.49 270.731 1809.23 270.731C1805.97 270.731 1803.32 364.923 1803.32 481.115Z" fill="#794836"/>
<path d="M1684.46 479.403C1684.46 531.248 1662.54 514.398 1633.02 529.732C1599.97 514.045 1583.36 531.248 1583.36 479.403C1620.12 425.545 1613.98 332 1643.45 332C1660.25 393.015 1665.72 431.329 1684.46 479.403Z" fill="#446353"/>
<path d="M1632.28 530.532C1626.92 582.283 1634.26 580.103 1636.5 580.103C1640.4 581.799 1640.4 580.204 1640.4 530.532C1636.5 480.477 1638.58 440.594 1636.34 440.594C1634.1 440.594 1632.28 480.861 1632.28 530.532Z" fill="#794836"/>
<path d="M1622.77 496.769C1631.54 511.824 1634.28 508.548 1635.26 507.715C1637.33 506.695 1636.98 506.293 1626.32 493.754C1613.87 482.565 1606.21 471.724 1605.23 472.557C1604.25 473.39 1612.11 484.23 1622.77 496.769Z" fill="#794836"/>
<path d="M106.519 347.966C106.66 365.158 108.068 356.685 104.979 356.71C101.889 356.735 99.738 365.214 99.5971 348.022C99.4563 330.83 100.581 197.041 103.67 197.016C106.76 196.991 106.378 330.774 106.519 347.966Z" fill="#EB8F13"/>
<path d="M84.3604 271C84.3604 266.582 87.9421 263 92.3604 263H116.36C120.779 263 124.36 266.582 124.36 271V371H84.3604V271Z" fill="#EB8F13"/>
<path d="M48.3604 330C48.3604 324.477 52.8375 320 58.3604 320H152.36C157.883 320 162.36 324.477 162.36 330V728H48.3604V330Z" fill="#FFA833"/>
<path d="M66.3604 311C66.3604 299.954 75.3147 291 86.3604 291H123.36C134.406 291 143.36 299.954 143.36 311V399H66.3604V311Z" fill="#FFA833"/>
<rect x="67.3604" y="345" width="18" height="28" fill="#FF8D33"/>
<rect x="96.3604" y="345" width="18" height="28" fill="#FF8D33"/>
<rect x="125.36" y="345" width="18" height="28" fill="#FF8D33"/>
<rect x="67.3604" y="384" width="18" height="28" fill="#FF8D33"/>
<rect x="96.3604" y="384" width="18" height="28" fill="#FF8D33"/>
<rect x="125.36" y="384" width="18" height="28" fill="#FF8D33"/>
<rect x="67.3604" y="421" width="18" height="28" fill="#FF8D33"/>
<rect x="96.3604" y="421" width="18" height="28" fill="#FF8D33"/>
<rect x="125.36" y="421" width="18" height="28" fill="#FF8D33"/>
<rect x="67.3604" y="460" width="18" height="28" fill="#FF8D33"/>
<rect x="96.3604" y="460" width="18" height="28" fill="#FF8D33"/>
<rect x="125.36" y="460" width="18" height="28" fill="#FF8D33"/>
<rect x="67.3604" y="500" width="18" height="28" fill="#FF8D33"/>
<rect x="96.3604" y="500" width="18" height="28" fill="#FF8D33"/>
<rect x="125.36" y="500" width="18" height="28" fill="#FF8D33"/>
<rect x="67.3604" y="541" width="18" height="28" fill="#FF8D33"/>
<rect x="96.3604" y="541" width="18" height="28" fill="#FF8D33"/>
<rect x="125.36" y="541" width="18" height="28" fill="#FF8D33"/>
<rect x="67.3604" y="581" width="18" height="28" fill="#FF8D33"/>
<rect x="96.3604" y="581" width="18" height="28" fill="#FF8D33"/>
<rect x="125.36" y="581" width="18" height="28" fill="#FF8D33"/>
<rect x="67.3604" y="621" width="18" height="28" fill="#FF8D33"/>
<rect x="96.3604" y="621" width="18" height="28" fill="#FF8D33"/>
<rect x="125.36" y="621" width="18" height="28" fill="#FF8D33"/>
<path d="M195.36 389C195.36 383.477 199.838 379 205.36 379H299.36C304.883 379 309.36 383.477 309.36 389V760H195.36V389Z" fill="#3D7056"/>
<rect x="214.36" y="402.346" width="18" height="26.1471" fill="#E3FFB9"/>
<rect x="243.36" y="402.346" width="18" height="26.1471" fill="#E3FFB9"/>
<rect x="272.36" y="402.346" width="18" height="26.1471" fill="#E3FFB9"/>
<rect x="214.36" y="438.765" width="18" height="26.1471" fill="#E3FFB9"/>
<rect x="243.36" y="438.765" width="18" height="26.1471" fill="#E3FFB9"/>
<rect x="272.36" y="438.765" width="18" height="26.1471" fill="#E3FFB9"/>
<rect x="214.36" y="473.316" width="18" height="26.1471" fill="#E3FFB9"/>
<rect x="243.36" y="473.316" width="18" height="26.1471" fill="#E3FFB9"/>
<rect x="272.36" y="473.316" width="18" height="26.1471" fill="#E3FFB9"/>
<rect x="214.36" y="509.735" width="18" height="26.1471" fill="#E3FFB9"/>
<rect x="243.36" y="509.735" width="18" height="26.1471" fill="#E3FFB9"/>
<rect x="272.36" y="509.735" width="18" height="26.1471" fill="#E3FFB9"/>
<rect x="214.36" y="547.088" width="18" height="26.1471" fill="#E3FFB9"/>
<rect x="243.36" y="547.088" width="18" height="26.1471" fill="#E3FFB9"/>
<rect x="272.36" y="547.088" width="18" height="26.1471" fill="#E3FFB9"/>
<rect x="214.36" y="585.375" width="18" height="26.1471" fill="#E3FFB9"/>
<rect x="243.36" y="585.375" width="18" height="26.1471" fill="#E3FFB9"/>
<rect x="272.36" y="585.375" width="18" height="26.1471" fill="#E3FFB9"/>
<path d="M634.472 895.907C823.703 895.907 1157.82 895.907 1578.9 884.68C1871.65 876.874 2001.68 982.138 1950.49 632.725C1947.86 614.784 1655.96 645.964 1394.83 742.892C1091.92 855.326 445.241 895.907 634.472 895.907Z" fill="#FFBB5E"/>
<path d="M957.987 898.004C833.327 898.004 579.755 898.004 260.778 884.844C124.514 856.419 -102.443 1020.68 -10.072 715.799C-4.06853 695.983 45.2376 693.52 260.778 715.798C565.418 747.286 1095.92 898.004 957.987 898.004Z" fill="#FFA14B"/>
</g>
<defs>
<clipPath id="clip0_38_27">
<rect width="1902" height="840" fill="white"/>
</clipPath>
</defs>
</svg>
