<svg width="91" height="88" viewBox="0 0 91 88" fill="none" xmlns="http://www.w3.org/2000/svg">
<g clip-path="url(#clip0_66_137)">
<g filter="url(#filter0_d_66_137)">
<path d="M60.8585 77V18.3333C60.8585 16.3884 60.0677 14.5232 58.6599 13.1479C57.2522 11.7726 55.343 11 53.3521 11H38.3394C36.3486 11 34.4393 11.7726 33.0316 13.1479C31.6239 14.5232 30.8331 16.3884 30.8331 18.3333V77M15.8203 25.6667H75.8712C80.0169 25.6667 83.3776 28.9499 83.3776 33V69.6667C83.3776 73.7168 80.0169 77 75.8712 77H15.8203C11.6747 77 8.31398 73.7168 8.31398 69.6667V33C8.31398 28.9499 11.6747 25.6667 15.8203 25.6667Z" stroke="#BF6A02" stroke-width="8" stroke-linecap="round" stroke-linejoin="round" shape-rendering="crispEdges"/>
</g>
</g>
<defs>
<filter id="filter0_d_66_137" x="0.31398" y="7" width="91.0636" height="82" filterUnits="userSpaceOnUse" color-interpolation-filters="sRGB">
<feFlood flood-opacity="0" result="BackgroundImageFix"/>
<feColorMatrix in="SourceAlpha" type="matrix" values="0 0 0 0 0 0 0 0 0 0 0 0 0 0 0 0 0 0 127 0" result="hardAlpha"/>
<feOffset dy="4"/>
<feGaussianBlur stdDeviation="2"/>
<feComposite in2="hardAlpha" operator="out"/>
<feColorMatrix type="matrix" values="0 0 0 0 0 0 0 0 0 0 0 0 0 0 0 0 0 0 0.25 0"/>
<feBlend mode="normal" in2="BackgroundImageFix" result="effect1_dropShadow_66_137"/>
<feBlend mode="normal" in="SourceGraphic" in2="effect1_dropShadow_66_137" result="shape"/>
</filter>
<clipPath id="clip0_66_137">
<rect width="90.0763" height="88" fill="white" transform="translate(0.807617)"/>
</clipPath>
</defs>
</svg>
