<svg width="300" height="383" viewBox="0 0 300 383" fill="none" xmlns="http://www.w3.org/2000/svg">
<path d="M300 150C300 232.843 193 382.5 150 382.5C102 382.5 0 232.843 0 150C0 67.1573 67.1573 0 150 0C232.843 0 300 67.1573 300 150Z" fill="#FF3F3F"/>
<path d="M300 150C300 232.843 193 382.5 150 382.5C102 382.5 0 232.843 0 150C0 67.1573 67.1573 0 150 0C232.843 0 300 67.1573 300 150Z" fill="#6EDF55"/>
<circle cx="150.5" cy="150.5" r="115" fill="#FFFDFD"/>
<rect x="88" y="114" width="125" height="90" fill="#FFE4BF"/>
<rect x="126" y="153" width="47" height="51" fill="#ADFDFE"/>
<path d="M98.0394 76H206.239L229 131H70L98.0394 76Z" fill="#4C7B41"/>
<path d="M98.0394 76H135L123 131H70L98.0394 76Z" fill="#6EDF55"/>
<path d="M206.961 76H170L182 131H235L206.961 76Z" fill="#6EDF55"/>
<path d="M133.939 114V111.145L141.513 103.719C142.238 102.988 142.842 102.338 143.325 101.77C143.808 101.202 144.17 100.651 144.411 100.119C144.653 99.5859 144.773 99.0178 144.773 98.4141C144.773 97.7251 144.617 97.1357 144.305 96.6456C143.992 96.1484 143.562 95.7649 143.016 95.495C142.469 95.2251 141.847 95.0902 141.151 95.0902C140.434 95.0902 139.805 95.2393 139.266 95.5376C138.726 95.8288 138.307 96.2443 138.009 96.7841C137.717 97.3239 137.572 97.9666 137.572 98.7124H133.811C133.811 97.3274 134.127 96.1236 134.759 95.1009C135.391 94.0781 136.261 93.2862 137.369 92.7251C138.484 92.1641 139.763 91.8835 141.205 91.8835C142.668 91.8835 143.953 92.157 145.061 92.7038C146.169 93.2507 147.028 94 147.639 94.9517C148.257 95.9034 148.566 96.9901 148.566 98.2116C148.566 99.0284 148.41 99.831 148.097 100.619C147.785 101.408 147.234 102.281 146.446 103.24C145.665 104.199 144.567 105.36 143.154 106.724L139.393 110.548V110.697H148.896V114H133.939ZM151.709 109.952V106.809L160.967 92.1818H163.587V96.6562H161.989L155.757 106.532V106.702H168.68V109.952H151.709ZM162.117 114V108.993L162.16 107.587V92.1818H165.888V114H162.117Z" fill="white"/>
</svg>
