<svg width="95" height="92" viewBox="0 0 95 92" fill="none" xmlns="http://www.w3.org/2000/svg">
<path d="M55.7405 7.66675H24.3503C22.269 7.66675 20.2729 8.47448 18.8012 9.91226C17.3295 11.35 16.5027 13.3001 16.5027 15.3334V76.6668C16.5027 78.7001 17.3295 80.6501 18.8012 82.0879C20.2729 83.5257 22.269 84.3334 24.3503 84.3334H71.4356C73.5169 84.3334 75.513 83.5257 76.9847 82.0879C78.4564 80.6501 79.2832 78.7001 79.2832 76.6668V30.6667M55.7405 7.66675L79.2832 30.6667M55.7405 7.66675V30.6667H79.2832M63.5881 49.8334H32.1979M63.5881 65.1668H32.1979M40.0454 34.5001H32.1979" stroke="#BF6A02" stroke-width="8" stroke-linecap="round" stroke-linejoin="round"/>
</svg>
