<svg width="301" height="383" viewBox="0 0 301 383" fill="none" xmlns="http://www.w3.org/2000/svg">
<path d="M300.5 150.5C300.5 233.343 193.5 383 150.5 383C102.5 383 0.5 233.343 0.5 150.5C0.5 67.6573 67.6573 0.5 150.5 0.5C233.343 0.5 300.5 67.6573 300.5 150.5Z" fill="#FF3F3F"/>
<path d="M300.5 150.5C300.5 233.343 193.5 383 150.5 383C102.5 383 0.5 233.343 0.5 150.5C0.5 67.6573 67.6573 0.5 150.5 0.5C233.343 0.5 300.5 67.6573 300.5 150.5Z" fill="#FF3F3F"/>
<circle cx="151" cy="151" r="115" fill="#FFFDFD"/>
<rect x="121" y="67" width="60" height="168" rx="10" fill="#FF3F3F"/>
<rect x="67" y="181" width="60" height="168" rx="10" transform="rotate(-90 67 181)" fill="#FF3F3F"/>
</svg>
