<svg width="371" height="161" viewBox="0 0 371 161" fill="none" xmlns="http://www.w3.org/2000/svg">
<path d="M9.0554 146V64.1818H31.7472V146H9.0554ZM20.4545 53.6349C17.081 53.6349 14.1868 52.5163 11.772 50.2791C9.39276 48.0064 8.20312 45.2898 8.20312 42.1293C8.20312 39.0043 9.39276 36.3232 11.772 34.0859C14.1868 31.8132 17.081 30.6768 20.4545 30.6768C23.8281 30.6768 26.7045 31.8132 29.0838 34.0859C31.4986 36.3232 32.706 39.0043 32.706 42.1293C32.706 45.2898 31.4986 48.0064 29.0838 50.2791C26.7045 52.5163 23.8281 53.6349 20.4545 53.6349ZM87.2115 147.598C78.7953 147.598 71.551 145.893 65.4785 142.484C59.4416 139.04 54.7896 134.175 51.5225 127.889C48.2555 121.568 46.622 114.093 46.622 105.464C46.622 97.0476 48.2555 89.6612 51.5225 83.3047C54.7896 76.9482 59.3883 71.9943 65.3187 68.4432C71.2846 64.892 78.2804 63.1165 86.3059 63.1165C91.7037 63.1165 96.7285 63.9865 101.381 65.7266C106.068 67.4311 110.152 70.0057 113.632 73.4503C117.148 76.8949 119.882 81.2273 121.835 86.4474C123.788 91.6321 124.765 97.7045 124.765 104.665V110.897H55.6774V96.8345H103.405C103.405 93.5675 102.694 90.6733 101.274 88.152C99.8535 85.6307 97.8826 83.6598 95.3613 82.2393C92.8755 80.7834 89.9814 80.0554 86.6788 80.0554C83.2342 80.0554 80.1802 80.8544 77.5169 82.4524C74.889 84.0149 72.8294 86.1278 71.3379 88.7912C69.8464 91.419 69.0829 94.3487 69.0474 97.5803V110.95C69.0474 114.999 69.7931 118.496 71.2846 121.444C72.8116 124.391 74.9601 126.664 77.7299 128.262C80.4998 129.86 83.7846 130.659 87.5843 130.659C90.1056 130.659 92.4139 130.304 94.5091 129.594C96.6042 128.884 98.3976 127.818 99.889 126.398C101.381 124.977 102.517 123.237 103.298 121.178L124.285 122.562C123.22 127.605 121.036 132.009 117.733 135.773C114.466 139.501 110.241 142.413 105.056 144.509C99.9068 146.568 93.9586 147.598 87.2115 147.598ZM192.041 111.163V64.1818H214.733V146H192.947V131.138H192.094C190.248 135.933 187.176 139.786 182.879 142.697C178.618 145.609 173.415 147.065 167.272 147.065C161.803 147.065 156.991 145.822 152.836 143.337C148.682 140.851 145.432 137.317 143.089 132.737C140.78 128.156 139.608 122.669 139.573 116.277V64.1818H162.265V112.229C162.3 117.058 163.596 120.876 166.153 123.681C168.71 126.487 172.137 127.889 176.434 127.889C179.168 127.889 181.725 127.268 184.104 126.025C186.483 124.746 188.401 122.864 189.857 120.379C191.349 117.893 192.077 114.821 192.041 111.163ZM232.884 146V64.1818H254.51V78.6172H255.469C257.173 73.8232 260.014 70.0412 263.991 67.2713C267.969 64.5014 272.727 63.1165 278.267 63.1165C283.878 63.1165 288.654 64.5192 292.596 67.3246C296.538 70.0945 299.165 73.8587 300.479 78.6172H301.332C303.001 73.9297 306.019 70.1832 310.387 67.3778C314.79 64.5369 319.993 63.1165 325.994 63.1165C333.629 63.1165 339.826 65.549 344.585 70.4141C349.379 75.2436 351.776 82.0973 351.776 90.9751V146H329.137V95.4496C329.137 90.9041 327.93 87.495 325.515 85.2223C323.1 82.9496 320.082 81.8132 316.46 81.8132C312.34 81.8132 309.126 83.1271 306.818 85.755C304.51 88.3473 303.356 91.7741 303.356 96.0355V146H281.357V94.9702C281.357 90.9574 280.202 87.7614 277.894 85.3821C275.621 83.0028 272.621 81.8132 268.892 81.8132C266.371 81.8132 264.098 82.4524 262.074 83.7308C260.085 84.9737 258.505 86.7315 257.333 89.0043C256.161 91.2415 255.575 93.8693 255.575 96.8878V146H232.884Z" fill="#FF8D33"/>
<circle cx="21.5" cy="37.5" r="18.5" fill="#FF8D33"/>
</svg>
