<svg width="200" height="96" viewBox="0 0 200 96" fill="none" xmlns="http://www.w3.org/2000/svg">
<path d="M4.82955 78V34.3636H16.9318V78H4.82955ZM10.9091 28.7386C9.10985 28.7386 7.56629 28.142 6.27841 26.9489C5.00947 25.7367 4.375 24.2879 4.375 22.6023C4.375 20.9356 5.00947 19.5057 6.27841 18.3125C7.56629 17.1004 9.10985 16.4943 10.9091 16.4943C12.7083 16.4943 14.2424 17.1004 15.5114 18.3125C16.7992 19.5057 17.4432 20.9356 17.4432 22.6023C17.4432 24.2879 16.7992 25.7367 15.5114 26.9489C14.2424 28.142 12.7083 28.7386 10.9091 28.7386ZM46.5128 78.8523C42.0241 78.8523 38.1605 77.9432 34.9219 76.125C31.7022 74.2879 29.2211 71.6932 27.4787 68.3409C25.7363 64.9697 24.8651 60.983 24.8651 56.3807C24.8651 51.892 25.7363 47.9527 27.4787 44.5625C29.2211 41.1723 31.6738 38.5303 34.8366 36.6364C38.0185 34.7424 41.7495 33.7955 46.0298 33.7955C48.9086 33.7955 51.5885 34.2595 54.0696 35.1875C56.5696 36.0966 58.7476 37.4697 60.6037 39.3068C62.4787 41.1439 63.937 43.4545 64.9787 46.2386C66.0204 49.0038 66.5412 52.2424 66.5412 55.9545V59.2784H29.6946V51.7784H55.1491C55.1491 50.036 54.7704 48.4924 54.0128 47.1477C53.2552 45.803 52.2041 44.7519 50.8594 43.9943C49.5336 43.2178 47.9901 42.8295 46.2287 42.8295C44.3916 42.8295 42.7628 43.2557 41.3423 44.108C39.9408 44.9413 38.8423 46.0682 38.0469 47.4886C37.2514 48.8902 36.8442 50.4527 36.8253 52.1761V59.3068C36.8253 61.4659 37.223 63.3314 38.0185 64.9034C38.8329 66.4754 39.9787 67.6875 41.456 68.5398C42.9332 69.392 44.6851 69.8182 46.7116 69.8182C48.0563 69.8182 49.2874 69.6288 50.4048 69.25C51.5223 68.8712 52.4787 68.303 53.2741 67.5455C54.0696 66.7879 54.6757 65.8598 55.0923 64.7614L66.2855 65.5C65.7173 68.1894 64.5526 70.5379 62.7912 72.5455C61.0488 74.5341 58.795 76.0871 56.0298 77.2045C53.2836 78.303 50.1113 78.8523 46.5128 78.8523ZM102.422 59.4205V34.3636H114.524V78H102.905V70.0739H102.45C101.465 72.6307 99.8272 74.6856 97.5355 76.2386C95.2628 77.7917 92.4882 78.5682 89.2116 78.5682C86.295 78.5682 83.7287 77.9053 81.5128 76.5795C79.2969 75.2538 77.5639 73.3693 76.3139 70.9261C75.0829 68.483 74.4579 65.5568 74.4389 62.1477V34.3636H86.5412V59.9886C86.5601 62.5644 87.2514 64.6004 88.6151 66.0966C89.9787 67.5928 91.8063 68.3409 94.098 68.3409C95.5563 68.3409 96.92 68.0095 98.1889 67.3466C99.4579 66.6648 100.481 65.661 101.257 64.3352C102.053 63.0095 102.441 61.3712 102.422 59.4205ZM124.205 78V34.3636H135.739V42.0625H136.25C137.159 39.5057 138.674 37.4886 140.795 36.0114C142.917 34.5341 145.455 33.7955 148.409 33.7955C151.402 33.7955 153.949 34.5436 156.051 36.0398C158.153 37.517 159.555 39.5246 160.256 42.0625H160.71C161.6 39.5625 163.21 37.5644 165.54 36.0682C167.888 34.553 170.663 33.7955 173.864 33.7955C177.936 33.7955 181.241 35.0928 183.778 37.6875C186.335 40.2633 187.614 43.9186 187.614 48.6534V78H175.54V51.0398C175.54 48.6155 174.896 46.7973 173.608 45.5852C172.32 44.3731 170.71 43.767 168.778 43.767C166.581 43.767 164.867 44.4678 163.636 45.8693C162.405 47.2519 161.79 49.0795 161.79 51.3523V78H150.057V50.7841C150.057 48.6439 149.441 46.9394 148.21 45.6705C146.998 44.4015 145.398 43.767 143.409 43.767C142.064 43.767 140.852 44.108 139.773 44.7898C138.712 45.4527 137.869 46.3902 137.244 47.6023C136.619 48.7955 136.307 50.197 136.307 51.8068V78H124.205Z" fill="#FF8D33"/>
<circle cx="10" cy="20" r="10" fill="#FF8D33"/>
</svg>
