<svg width="300" height="383" viewBox="0 0 300 383" fill="none" xmlns="http://www.w3.org/2000/svg">
<path d="M300 150C300 232.843 193 382.5 150 382.5C102 382.5 0 232.843 0 150C0 67.1573 67.1573 0 150 0C232.843 0 300 67.1573 300 150Z" fill="#FF3F3F"/>
<path d="M300 150C300 232.843 193 382.5 150 382.5C102 382.5 0 232.843 0 150C0 67.1573 67.1573 0 150 0C232.843 0 300 67.1573 300 150Z" fill="#3F89FF"/>
<circle cx="150.5" cy="150.5" r="115" fill="#FFFDFD"/>
<rect x="62" y="99.0312" width="89.826" height="182.804" rx="44.913" transform="rotate(-33.0826 62 99.0312)" fill="#D9D9D9"/>
<path d="M86.5156 136.663C72.976 115.88 78.8484 88.0552 99.6319 74.5156V74.5156C120.415 60.976 148.24 66.8484 161.779 87.6319L191.213 132.813L115.949 181.844L86.5156 136.663Z" fill="#3F89FF"/>
</svg>
