<svg width="341" height="44" viewBox="0 0 341 44" fill="none" xmlns="http://www.w3.org/2000/svg">
<path d="M24.715 12.19H28.46V16.88C28.46 18.8867 28.285 20.8467 27.935 22.76C27.585 24.65 27.0367 26.4117 26.29 28.045C25.5667 29.6783 24.645 31.1367 23.525 32.42C22.405 33.68 21.0867 34.6833 19.57 35.43L16.77 31.685C18.1467 31.055 19.325 30.215 20.305 29.165C21.3083 28.115 22.1367 26.925 22.79 25.595C23.4433 24.265 23.9217 22.865 24.225 21.395C24.5517 19.9017 24.715 18.3967 24.715 16.88V12.19ZM25.625 12.19H29.37V16.88C29.37 18.35 29.51 19.7967 29.79 21.22C30.0933 22.6433 30.5483 23.9967 31.155 25.28C31.785 26.54 32.5667 27.6717 33.5 28.675C34.4333 29.6783 35.5533 30.5067 36.86 31.16L34.025 34.87C32.5783 34.1233 31.3183 33.1433 30.245 31.93C29.195 30.6933 28.3317 29.2817 27.655 27.695C26.9783 26.085 26.465 24.37 26.115 22.55C25.7883 20.7067 25.625 18.8167 25.625 16.88V12.19ZM38.12 9.705H42.81V42.115H38.12V9.705ZM41.795 22.165H47.5V26.015H41.795V22.165ZM70.4573 9.705H75.1123V28.955H70.4573V9.705ZM73.8173 17.335H79.4173V21.15H73.8173V17.335ZM54.0423 30.355H75.1123V41.765H54.0423V30.355ZM70.5973 33.96H58.6273V38.09H70.5973V33.96ZM50.7873 24.055H53.5173C55.6406 24.055 57.5306 24.0317 59.1873 23.985C60.8673 23.9383 62.4189 23.845 63.8423 23.705C65.2889 23.565 66.7589 23.355 68.2523 23.075L68.6723 26.785C67.1789 27.065 65.6739 27.2867 64.1573 27.45C62.6639 27.59 61.0539 27.6833 59.3273 27.73C57.6239 27.7767 55.6873 27.8 53.5173 27.8H50.7873V24.055ZM50.7173 11.315H65.5223V21.185H55.3723V26.12H50.7873V17.72H60.9373V14.99H50.7173V11.315ZM83.1595 12.89H97.1595V16.6H83.1595V12.89ZM87.3595 22.165H91.9095V33.19H87.3595V22.165ZM95.2695 12.89H99.8895V15.55C99.8895 17.1133 99.8429 18.8983 99.7495 20.905C99.6795 22.9117 99.4229 25.2683 98.9795 27.975L94.4295 27.59C94.8495 25 95.0945 22.7367 95.1645 20.8C95.2345 18.84 95.2695 17.09 95.2695 15.55V12.89ZM102.655 9.67H107.275V42.08H102.655V9.67ZM105.945 22.69H111.65V26.54H105.945V22.69ZM81.9695 35.57L81.5495 31.79C83.4395 31.79 85.4929 31.7783 87.7095 31.755C89.9495 31.7083 92.2129 31.6267 94.4995 31.51C96.8095 31.37 99.0379 31.1717 101.185 30.915L101.395 34.31C99.2012 34.66 96.9612 34.9283 94.6745 35.115C92.4112 35.3017 90.1945 35.43 88.0245 35.5C85.8545 35.5467 83.8362 35.57 81.9695 35.57ZM129.351 14.815H133.061V18.455C133.061 20.3217 132.863 22.1533 132.466 23.95C132.093 25.7467 131.521 27.4383 130.751 29.025C130.005 30.5883 129.06 31.9767 127.916 33.19C126.773 34.38 125.443 35.325 123.926 36.025L121.266 32.35C122.62 31.72 123.798 30.9033 124.801 29.9C125.828 28.8967 126.668 27.7767 127.321 26.54C127.998 25.28 128.5 23.9617 128.826 22.585C129.176 21.185 129.351 19.8083 129.351 18.455V14.815ZM130.366 14.815H134.041V18.455C134.041 19.7383 134.205 21.045 134.531 22.375C134.881 23.6817 135.383 24.93 136.036 26.12C136.69 27.2867 137.518 28.3367 138.521 29.27C139.525 30.2033 140.715 30.95 142.091 31.51L139.536 35.22C137.996 34.5433 136.655 33.6333 135.511 32.49C134.368 31.3467 133.411 30.0283 132.641 28.535C131.871 27.0417 131.3 25.4433 130.926 23.74C130.553 22.0133 130.366 20.2517 130.366 18.455V14.815ZM122.561 12.785H140.761V16.635H122.561V12.785ZM143.771 9.705H148.426V42.115H143.771V9.705ZM168.059 14.045H177.649V17.755H168.059V14.045ZM168.059 21.08H177.649V24.79H168.059V21.08ZM158.749 30.355H180.869V42.115H176.179V34.03H158.749V30.355ZM176.179 9.705H180.869V28.885H176.179V9.705ZM162.704 11.35C164.314 11.35 165.76 11.7 167.044 12.4C168.327 13.0767 169.342 14.0217 170.089 15.235C170.859 16.4483 171.244 17.8367 171.244 19.4C171.244 20.94 170.859 22.3283 170.089 23.565C169.342 24.7783 168.327 25.735 167.044 26.435C165.76 27.1117 164.314 27.45 162.704 27.45C161.094 27.45 159.635 27.1117 158.329 26.435C157.045 25.735 156.019 24.7783 155.249 23.565C154.502 22.3283 154.129 20.94 154.129 19.4C154.129 17.8367 154.502 16.4483 155.249 15.235C156.019 14.0217 157.045 13.0767 158.329 12.4C159.635 11.7 161.094 11.35 162.704 11.35ZM162.669 15.34C161.899 15.34 161.199 15.5033 160.569 15.83C159.939 16.1333 159.437 16.5883 159.064 17.195C158.714 17.8017 158.539 18.5367 158.539 19.4C158.539 20.24 158.714 20.975 159.064 21.605C159.437 22.2117 159.939 22.6783 160.569 23.005C161.199 23.3317 161.899 23.495 162.669 23.495C163.462 23.495 164.162 23.3317 164.769 23.005C165.399 22.6783 165.889 22.2117 166.239 21.605C166.612 20.975 166.799 20.24 166.799 19.4C166.799 18.5367 166.612 17.8017 166.239 17.195C165.889 16.5883 165.399 16.1333 164.769 15.83C164.162 15.5033 163.462 15.34 162.669 15.34ZM200.606 10.125C204.293 10.125 207.163 10.6033 209.216 11.56C211.293 12.5167 212.331 13.8933 212.331 15.69C212.331 17.4633 211.293 18.8283 209.216 19.785C207.163 20.7417 204.293 21.22 200.606 21.22C196.896 21.22 194.003 20.7417 191.926 19.785C189.873 18.8283 188.846 17.4633 188.846 15.69C188.846 13.8933 189.873 12.5167 191.926 11.56C194.003 10.6033 196.896 10.125 200.606 10.125ZM200.571 13.555C199.031 13.555 197.748 13.6367 196.721 13.8C195.694 13.94 194.924 14.1733 194.411 14.5C193.921 14.8033 193.676 15.2 193.676 15.69C193.676 16.18 193.921 16.5883 194.411 16.915C194.924 17.2183 195.694 17.44 196.721 17.58C197.748 17.72 199.031 17.79 200.571 17.79C202.134 17.79 203.429 17.72 204.456 17.58C205.483 17.44 206.241 17.2183 206.731 16.915C207.221 16.5883 207.466 16.18 207.466 15.69C207.466 15.2 207.221 14.8033 206.731 14.5C206.241 14.1733 205.483 13.94 204.456 13.8C203.429 13.6367 202.134 13.555 200.571 13.555ZM185.906 22.725H215.236V26.4H185.906V22.725ZM189.266 28.22H211.666V36.515H193.921V39.385H189.301V33.295H207.081V31.65H189.266V28.22ZM189.301 38.37H212.541V41.905H189.301V38.37ZM247.918 9.705H252.573V31.23H247.918V9.705ZM239.203 29.655H243.123V30.25C243.123 31.72 242.843 33.0967 242.283 34.38C241.746 35.6633 240.953 36.8183 239.903 37.845C238.876 38.8717 237.593 39.735 236.053 40.435C234.513 41.1583 232.751 41.6717 230.768 41.975L229.018 38.37C230.744 38.1133 232.238 37.7167 233.498 37.18C234.781 36.6433 235.843 36.0133 236.683 35.29C237.523 34.5433 238.153 33.7383 238.573 32.875C238.993 32.0117 239.203 31.1367 239.203 30.25V29.655ZM240.043 29.655H243.998V30.25C243.998 31.1367 244.208 32.0117 244.628 32.875C245.048 33.7383 245.666 34.5433 246.483 35.29C247.323 36.0133 248.373 36.6433 249.633 37.18C250.916 37.7167 252.421 38.1133 254.148 38.37L252.398 41.975C250.414 41.6717 248.653 41.1583 247.113 40.435C245.573 39.735 244.278 38.8717 243.228 37.845C242.201 36.8183 241.408 35.6633 240.848 34.38C240.311 33.0733 240.043 31.6967 240.043 30.25V29.655ZM234.933 11.665C236.613 11.665 238.118 12.0033 239.448 12.68C240.778 13.3567 241.828 14.29 242.598 15.48C243.368 16.67 243.753 18.0467 243.753 19.61C243.753 21.15 243.368 22.515 242.598 23.705C241.828 24.895 240.778 25.84 239.448 26.54C238.118 27.2167 236.613 27.555 234.933 27.555C233.276 27.555 231.771 27.2167 230.418 26.54C229.088 25.84 228.038 24.895 227.268 23.705C226.498 22.515 226.113 21.15 226.113 19.61C226.113 18.0467 226.498 16.67 227.268 15.48C228.038 14.29 229.088 13.3567 230.418 12.68C231.771 12.0033 233.276 11.665 234.933 11.665ZM234.933 15.585C234.139 15.585 233.416 15.7483 232.763 16.075C232.109 16.3783 231.596 16.8333 231.223 17.44C230.849 18.0233 230.663 18.7467 230.663 19.61C230.663 20.45 230.849 21.1733 231.223 21.78C231.596 22.3633 232.109 22.8183 232.763 23.145C233.416 23.4717 234.139 23.635 234.933 23.635C235.749 23.635 236.473 23.4717 237.103 23.145C237.756 22.8183 238.269 22.3633 238.643 21.78C239.016 21.1733 239.203 20.45 239.203 19.61C239.203 18.7467 239.016 18.0233 238.643 17.44C238.269 16.8333 237.756 16.3783 237.103 16.075C236.473 15.7483 235.749 15.585 234.933 15.585ZM278.54 9.635H283.23V42.15H278.54V9.635ZM282.215 21.64H287.92V25.49H282.215V21.64ZM259.08 30.53H261.81C263.653 30.53 265.38 30.5067 266.99 30.46C268.6 30.39 270.163 30.285 271.68 30.145C273.197 29.9817 274.748 29.76 276.335 29.48L276.79 33.33C275.157 33.61 273.547 33.8317 271.96 33.995C270.397 34.1583 268.787 34.2633 267.13 34.31C265.473 34.3567 263.7 34.38 261.81 34.38H259.08V30.53ZM259.08 12.645H274.2V16.39H263.735V32.35H259.08V12.645Z" fill="#FFC08E"/>
<path d="M5.20774 34.3232C4.38743 34.3232 3.68312 34.0331 3.09482 33.4531C2.5148 32.8648 2.22479 32.1605 2.22479 31.3402C2.22479 30.5282 2.5148 29.8321 3.09482 29.2521C3.68312 28.6721 4.38743 28.3821 5.20774 28.3821C6.0032 28.3821 6.69922 28.6721 7.29581 29.2521C7.8924 29.8321 8.1907 30.5282 8.1907 31.3402C8.1907 31.8871 8.04983 32.3884 7.76811 32.8441C7.49467 33.2915 7.13423 33.652 6.68679 33.9254C6.23935 34.1906 5.74633 34.3232 5.20774 34.3232ZM5.20774 20.9496C4.38743 20.9496 3.68312 20.6596 3.09482 20.0795C2.5148 19.4995 2.22479 18.7952 2.22479 17.9666C2.22479 17.1546 2.5148 16.4627 3.09482 15.891C3.68312 15.311 4.38743 15.021 5.20774 15.021C6.0032 15.021 6.69922 15.311 7.29581 15.891C7.8924 16.4627 8.1907 17.1546 8.1907 17.9666C8.1907 18.5218 8.04983 19.0272 7.76811 19.483C7.49467 19.9304 7.13423 20.2867 6.68679 20.5518C6.23935 20.817 5.74633 20.9496 5.20774 20.9496Z" fill="#FFC08E"/>
</svg>
