<svg width="789" height="1129" viewBox="0 0 789 1129" fill="none" xmlns="http://www.w3.org/2000/svg">
<path d="M147.683 282.224C156.379 289.429 166.576 294.129 177.494 295.582C193.056 296.446 216.589 289.192 220.16 273.651C220.489 271.108 221.591 267.85 221.928 265.689C222.275 262.789 221.425 259.826 220.983 256.899C217.726 249.514 212.173 244.225 207.386 237.864C202.139 228.958 191.274 230.06 183.6 234.178C177.049 237.259 170.524 240.316 166.376 246.387C160.697 253.482 151.842 258.301 141.683 255.417C140.131 255.366 138.952 254.97 137.799 254.574C137.814 255.291 137.821 255.649 137.837 256.39C137.55 262.204 139.224 268.106 138.963 273.921C142.521 276.233 144.524 279.568 147.683 282.224Z" fill="#FFE0A0"/>
<path d="M153.197 435.491C155.544 437.023 157.954 440.395 159.919 441.915C165.817 445.377 173.599 445.272 180.21 445.129C184.853 444.541 188.685 442.851 193.369 443.004C207.272 438.706 219.905 429.642 235.052 430.135C241.671 430.35 248.709 432.417 254.905 431.879C256.84 431.942 258.762 430.19 259.918 429.488C265.265 426.01 271.426 422.583 278.427 422.811C283.856 423.345 289.709 424.634 295.118 422.972C303.237 420.682 309.305 413.958 317.431 412.051C333.719 411.125 341.993 397.909 350.726 387.238C356.42 380.859 364.868 376.05 367.41 367.374C368.929 347.374 365.79 327.223 365.764 307.556C365.65 302.062 370.251 298.202 372.47 293.549C373.856 285.574 372.874 274.969 361.955 273.516C358.842 273.056 355.744 273.314 352.624 272.496C349.103 272 346.741 269.751 343.979 267.823C340.032 265.165 336.106 263.557 331.493 265.603C327.24 266.562 322.151 265.299 318.236 262.976C302.531 255.185 318.142 240.012 313.257 228.922C310.45 224.821 307.254 220.349 308.293 215.275C309.344 209.485 311.183 203.698 314.954 199.095C316.854 196.245 319.929 194.889 321.414 191.643C328.51 178.031 313.303 174.624 304.206 167.765C295.547 162.375 291.488 153.126 285.508 145.652C281.882 140.068 278.303 135.56 270.925 136.776C263.936 135.832 255.757 135.208 250.977 129.205C248.193 126.202 248.866 121.857 247.245 118.51C242.976 118.753 239.202 124.454 233.749 122.821C222.794 119.552 222.911 106.787 221.559 98.0074C219.908 93.204 214.041 91.1992 209.322 88.1338C200.193 96.9303 194.987 108.432 185.047 116.128C181.976 118.94 178.534 121.024 174.677 122.712C169.682 124.746 163.498 127.098 162.474 132.889C162.142 136.53 162.225 140.542 159.984 144.121C156.217 150.18 150.105 154.731 143.951 158.54C136.292 163.399 126.247 165.984 123.33 175.006C121.109 180.758 123.571 186.662 123.285 192.5C122.74 203.032 114.78 212.988 103.159 214.424C93.8317 214.86 83.7631 216.346 74.401 213.87C68.5186 211.125 62.6361 208.379 57.1202 204.906C53.9843 203.348 50.0593 201.765 46.6019 203.108C38.9033 207.249 35.582 215.161 28.2795 220.007C30.4969 232.49 38.4802 243.323 49.8929 250.234C56.1906 253.375 61.7261 259.021 68.7341 259.607C71.4653 260.054 72.9652 257.549 75.285 256.55C78.727 254.466 82.9809 253.507 87.265 254.004C87.423 241.98 101.984 232.62 114.882 236.334C126.991 239.998 139.681 252.082 152.398 247.03C158.526 243.22 161.503 237.111 166.868 233.276C181.462 224.275 201.485 215.809 213.522 234.436C220.703 243.405 228.634 251.683 228.487 262.991C227.833 269.533 226.416 276.027 223.813 281.79C220.454 287.862 213.918 291.659 207.79 295.47C185.5 307.514 155.465 301.787 137.599 282.994C132.008 275.891 127.762 277.209 131.041 285.693C132.74 291.572 139.446 297.256 135.673 302.98C130.791 310.459 120.325 311.217 111.818 313.136C111.036 313.468 109.872 313.788 109.109 313.764C109.116 314.146 109.116 314.146 109.124 314.504C108.845 320.7 115.936 325.299 120.696 329.106C123.432 331.009 127.311 330.395 130.44 331.595C134.357 332.82 138.687 335.515 140.689 338.85C140.697 339.232 140.697 339.232 140.705 339.59C141.509 340.332 141.913 341.443 141.944 342.9C143.746 354.988 129.439 358.174 119.624 353.487C111.821 351.396 98.7499 339.323 94.7146 350.839C100.045 363.782 115.298 369.386 123.321 380.936C126.51 385.05 125.842 390.875 130.186 394.287C137.346 402.181 142.593 411.087 149.345 418.969C154.134 424.232 155.026 430.443 153.197 435.491Z" fill="#FFE0A0"/>
<path d="M111.689 306.926C113.234 306.618 114.78 306.31 115.951 306.349C120.968 305.414 127.946 304.543 130.572 299.903C128.958 296.915 126.938 293.937 126.114 290.998C121.678 283.192 123.809 273.07 131.558 272.583C131.551 272.224 131.551 272.224 131.543 271.866C131.048 266.384 130.153 261.247 130.429 256.149C129.253 254.655 129.605 253.21 130.346 252.136C122.117 247.859 114.636 242.866 105.728 245.13C100.733 247.163 95.3989 252.455 97.065 257.975C97.0724 258.333 97.4696 259.086 97.0952 259.432C106.963 266.675 112.268 279.616 114.047 290.606C114.561 295.73 113.121 301.149 111.689 306.926Z" fill="#FFE0A0"/>
<path d="M26.0708 449.947C16.4295 453.643 12.3566 463.344 7.457 471.204C1.86936 482.694 4.40031 491.894 15.821 499.187C21.213 497.906 27.0304 496.282 32.1232 498.977C39.2222 503.958 40.9561 512.75 43.8238 519.789C47.1635 531.187 44.3071 543.123 44.1672 554.79C43.5215 561.691 50.6654 568.845 58.0023 566.888C67.7761 551.167 39.475 534.588 51.9726 518.956C54.6361 516.131 58.8974 515.53 61.9502 513.075C68.0785 509.265 63.1934 498.174 73.7042 499.614C78.3701 500.124 81.5695 503.522 84.7356 506.537C91.4346 511.863 93.9428 519.964 89.0459 526.726C81.4526 535.954 86.7603 547.798 86.5717 558.342C87.1002 564.206 89.9299 569.406 90.8068 574.9C91.302 580.382 90.6515 585.827 91.9284 590.976C94.8259 599.448 98.0978 607.574 101.37 615.7C103.455 623.047 101.694 631.368 97.5461 637.438C96.0462 639.943 96.1139 643.215 96.9306 645.796C100.474 647.367 105.072 644.605 108.982 645.472C124.129 645.965 130.411 668.032 126.369 679.214C125.636 680.646 124.869 681.695 124.12 682.41C131.189 685.91 136.621 685.371 142.712 679.745C148.061 675.17 154.579 671.73 159.524 666.067C162.936 662.527 167.552 659.407 169.388 654.717C170.873 651.495 171.976 648.238 173.85 645.387C179.521 637.91 191.135 636.116 199.779 640.765C204.898 643.485 209.609 646.192 213.962 649.986C217.135 653.359 220.335 656.757 224.962 655.427C232.696 654.223 240.441 652.303 247.373 649.235C251.635 648.658 255.497 648.401 259.766 648.182C267.111 646.607 273.797 650.095 278.569 655.716C282.929 659.867 282.676 666.065 283.163 671.188C282.948 679.201 296.446 673.792 301.524 675.795C307.368 676.702 311.736 681.235 315.714 685.375C319.654 687.675 321.857 682.281 324.154 680.16C326.817 677.335 330.252 674.892 334.132 674.303C336.059 674.007 338.027 674.429 339.969 674.851C339.946 673.752 339.542 672.665 339.526 671.924C337.868 666.763 334.661 663.007 331.865 658.19C325.027 647.394 329.047 635.137 322.624 624.713C317.183 624.894 313.281 624.409 310.153 623.209C310.153 623.209 310.153 623.209 309.779 623.579C306.334 626.737 302.906 629.537 298.253 630.842C292.476 633.208 286.579 629.746 282.993 624.88C278.731 625.481 278.837 630.592 275.777 632.664C273.847 634.057 270.741 633.956 268.01 633.509C264.125 632.667 260.56 629.997 258.165 627.365C255.803 625.093 252.637 622.078 251.413 619.484C248.216 615.012 244.994 610.516 244.117 605.022C241.174 594.353 246.8 584.702 250.888 575.718C234.103 572.26 224.453 555.907 225.307 540.635C225.53 532.981 231.613 526.973 228.731 519.242C225.881 511.846 217.237 507.197 215.493 499.12C213.033 492.119 214.382 482.329 221.688 478.915C225.178 477.931 228.651 477.304 232.138 477.417C239.973 479.868 248.587 483.06 254.148 488.707C254.934 489.83 256.121 490.609 257.315 491.746C264.935 485.048 276.903 480.712 285.778 478.089C283.202 466.692 268.758 463.31 260.843 455.773C256.468 450.881 253.624 444.964 252.331 439.075C251.95 439.062 251.95 439.062 251.568 439.05C242.225 438.746 232.059 435.503 223.192 438.508C213.176 442.55 203.16 446.592 193.112 450.275C191.574 450.965 190.029 451.273 188.461 450.482C182.662 451.773 177.236 452.67 171.01 451.752C163.613 450.771 155.815 450.159 150.654 444.168C149.071 442.66 146.691 440.745 145.483 438.892C143.166 438.816 140.427 437.987 138.062 436.812C132.195 434.808 128.21 430.31 122.742 427.936C117.264 426.302 111.442 426.471 105.949 424.12C102.406 422.549 100.037 419.918 96.8856 417.62C91.3776 414.529 85.0952 412.128 78.8918 412.308C75.3963 411.813 72.3334 415.007 70.4438 417.117C68.5472 418.893 66.632 421.003 64.3383 422.026C59.7146 424.788 53.8475 422.783 49.2266 424.446C46.1436 425.444 48.5386 428.076 50.1295 429.965C53.7075 434.449 58.8565 438.627 58.188 444.429C57.8744 447.712 56.0149 451.28 52.9066 452.276C46.7857 456.445 40.703 462.453 32.5161 461.446C27.8655 461.677 24.2313 455.711 26.0708 449.947Z" fill="#FFE0A0"/>
<path d="M526.481 770.232C523.541 778.156 523.594 780.711 531.464 786.051C532.643 786.472 533.828 787.226 534.24 788.695C534.248 789.078 534.256 789.436 534.263 789.794C534.67 789.807 535.052 789.82 535.816 789.845C542.427 789.702 548.963 785.905 555.549 785.761C558.926 779.307 560.304 770.951 566.8 766.436C571.431 764.033 576.838 763.469 582.308 764.745C591.269 765.037 598.138 760.176 597.957 751.411C597.492 747.386 596.26 744.434 595.796 740.409C596.38 730.571 606.351 724.356 607.3 714.911C608.123 698.159 595.75 681.717 578.096 692.814C567.354 698.646 559.769 708.257 549.012 713.373C545.929 714.37 542.065 715.7 539.386 717.785C535.949 721.325 531.77 725.939 532.665 731.052C534.293 734.756 538.234 737.08 540.611 740.07C545.782 745.346 539.292 751.316 535.873 754.499C531.686 758.73 528.701 764.457 526.481 770.232Z" fill="#FFE0A0"/>
<path d="M719.909 861.804C719.176 863.236 718.035 864.679 716.887 865.716C712.349 871.416 704.59 872.619 699.233 876.813C690.833 882.745 686.346 892.074 677.142 897.241C672.918 899.657 668.265 900.961 663.644 902.625C659.397 903.943 655.106 903.087 651.289 905.517C647.08 908.65 640.904 911.361 641.407 917.225C642.241 919.424 644.206 920.943 645.422 923.179C648.928 922.935 652.423 923.407 655.551 924.606C659.094 926.178 661.097 929.513 661.954 932.834C664.002 938.367 660.221 943.709 660.327 948.82C663.088 950.724 666.953 949.394 668.842 947.26C671.154 945.879 674.222 944.165 676.119 942.413C678.774 939.205 678.302 934.822 680.958 931.615C683.239 928.777 685.893 926.692 688.986 924.954C707.891 919.006 706.626 896.004 721.182 885.188C726.517 879.896 728.308 873.033 729.717 866.133C729.328 865.763 728.92 865.749 728.531 865.379C725.784 864.191 722.656 862.992 719.909 861.804Z" fill="#FFE0A0"/>
<path d="M740.902 787.042C733.1 784.975 727.913 778.958 721.227 775.471C717.693 773.16 713.073 774.847 709.59 776.19C701.886 778.851 696.949 784.896 692.411 790.572C688.614 795.174 681.308 798.588 677.926 803.586C678.338 805.055 677.572 806.128 676.449 807.19C676.464 807.906 676.064 808.251 676.079 808.992C676.959 813.388 677.814 817.807 680.613 821.526C684.186 824.555 687.352 827.593 691.285 829.535C697.946 833.022 705.736 833.275 712.797 836.441C721.018 840.336 723.519 848.079 721.728 854.942C723.296 855.733 724.456 856.487 726.042 856.921C727.61 857.688 729.17 858.096 730.731 858.529C732.163 852.728 733.602 847.309 737.407 843.065C741.193 839.179 746.595 837.159 750.789 833.285C754.952 827.955 758.322 821.143 760.128 814.996C761.881 806.318 760.147 797.502 760.755 788.786C754.548 790.04 747.189 790.899 740.902 787.042Z" fill="#FFE0A0"/>
<mask id="mask0_17_24" style="mask-type:luminance" maskUnits="userSpaceOnUse" x="207" y="0" width="529" height="423">
<path d="M207.474 0.87854L725.513 20.5843L735.503 422.076L217.464 402.371L207.474 0.87854Z" fill="white"/>
</mask>
<g mask="url(#mask0_17_24)">
<path d="M226.145 92.8086C230.62 99.8275 226.57 109.783 233.75 115.463C236.464 114.48 237.99 113.097 240.32 112.099C248.827 108.453 254.847 114.822 255.43 122.78C257.137 128.608 265.351 128.565 270.441 129.466C287.207 127.574 293.15 146.198 302.001 156.288C310.067 166.678 328.871 168.477 331.196 182.642C332.082 187.352 330.27 192.692 327.629 196.56C326.13 199.03 322.649 201.071 321.15 203.542C317.767 208.444 314.037 215.884 318.476 221.461C325.711 229.317 322.063 239.996 319.939 248.205C319.575 250.01 319.236 251.792 320.066 253.264C322.451 255.528 326.425 257.828 329.916 257.251C338.433 253.96 346.773 258.976 353.935 263.924C357.881 265.16 362.551 264.629 366.507 266.219C372.793 267.898 378.776 272.801 380.493 279.007C381.834 285.553 382.817 293.148 379.043 298.792C377.16 301.247 375.241 303.324 374.545 306.203C374.257 326.385 377.889 346.717 376.439 366.501C376.1 368.283 375.351 370.074 374.628 371.841C377.352 372.299 380.102 372.781 382.852 373.239C389.896 373.506 399.351 376.014 404.279 370.438C403.049 351.992 419.763 349.036 434.114 360.019C447.214 368.097 455.075 353.964 466.762 352.612C472.235 352.465 477.771 354.824 482.879 356.458C493.506 359.766 511.604 364.042 497.429 375.408C495.912 377.169 493.976 378.537 494.03 380.688C494.084 382.863 496.477 384.394 498.388 383.026C505.26 376.437 514.313 378.221 521.877 383.916C527.03 387.347 530.701 392.895 537.335 393.146C546.782 395.323 555.425 397.091 564.132 401.389C575.187 406.484 587.135 414.518 599.563 412.108C606.133 408.743 612.712 405.757 620.569 407.85C627.257 409.189 634.382 412.695 640.963 410.795C649.819 405.722 659.907 402.845 670.459 402.159C681.744 400.083 690.185 410.133 700.39 411.961C712.184 413.848 719.36 404.012 729.055 400.789C729.814 400.44 730.599 400.115 731.368 400.145C729.231 392.482 729.005 383.475 725.699 376.122C724.001 370.649 719.188 366.499 716.73 361.352C714.659 357.305 713.782 352.95 711.71 348.904C703.25 338.12 692.07 329.052 685.906 316.915C678.206 305.806 679.764 290.348 667.833 281.96C661.474 277.397 656.99 270 655.256 263.085C654.362 259.083 653.87 254.742 651.815 251.405C646.518 242.205 636.963 235.703 629.763 228.203C625.37 224.446 620.566 220.65 617.323 215.828C611.258 207.686 611.032 198.655 605.726 190.14C599.698 183.44 590.232 179.468 584.194 172.39C579.764 167.168 574.941 161.576 569.735 157.057C565.341 153.277 560.162 149.821 558.464 144.348C556.39 139.215 557.04 133.477 556.11 128.033C555.215 122.945 551.956 118.499 549.517 114.085C546.567 105.659 547.493 95.6092 543.375 87.5174C538.353 73.9827 530.513 80.6562 525.5 67.4997C535.575 79.4309 515.425 55.5686 525.5 67.4997C524.322 67.4551 509.134 98.7361 506 67.4998C503.715 70.2947 506.585 66.4015 506.291 69.9804C507.489 102.501 458.66 76.0172 427.547 82.396C396.871 89.9016 364.51 77.1259 333.271 78.4693C325.441 78.5269 318.852 80.0958 311.871 82.3584C299.39 83.6805 286.471 82.8366 273.916 80.188C252.362 77.9305 232.95 68.1727 215.356 83.0233C218.554 86.0259 222.912 88.3639 226.145 92.8086Z" fill="#FFE0A0"/>
</g>
<path d="M693.671 420.283C685.469 418.56 679.106 411.05 670.553 410.771C660.851 411.554 651.572 413.066 643.895 418.282C635.448 423.114 625.673 419.145 616.668 416.68C611.223 415.404 606.202 417.437 601.597 419.841C596.202 422.195 589.983 421.635 584.131 420.347C579.432 419.478 575.117 417.499 570.803 415.545C566.669 422.332 561.376 428.366 555.245 433.274C549.49 436.714 542.925 439.055 536.774 441.79C534.081 443.158 530.646 445.601 531.096 448.885C533.917 453.703 536.762 459.643 534.526 464.678C530.4 471.823 523.551 478.904 514.661 480.786C510.01 480.993 504.929 480.112 500.607 477.775C495.896 475.068 491.926 471.311 486.863 470.048C480.626 469.845 477.648 475.93 471.849 477.221C464.123 478.784 455.509 475.592 448.21 479.364C440.136 483.827 446.034 487.313 445.788 493.868C445.569 502.955 433.895 501.859 426.857 499.792C420.623 498.515 412.927 501.535 411.087 507.298C411.959 511.337 413.977 515.412 412.118 519.003C410.257 523.692 404.465 525.318 399.417 524.796C396.303 524.312 392.806 524.938 391.702 528.172C388.359 535.009 398.495 536.795 401.684 540.908C409.663 550.285 400.936 561.291 399.579 570.722C399.273 574.364 402.432 577.021 402.881 580.305C405.382 588.048 398.51 594.006 396.329 600.499C395.355 609.942 405.881 612.123 413.668 613.474C420.279 613.307 427.601 610.634 433.513 614.836C439.841 619.409 445.844 628.006 442.1 635.164C440.241 638.755 435.565 638.961 432.927 641.787C430.653 645.007 428.004 648.549 427.706 652.549C428.201 658.03 427.151 663.844 424.136 668.113C421.488 671.679 415.103 682.761 409.749 685.88C411.347 688.104 412.563 690.34 412.998 692.908C417.426 700.331 415.67 710.131 409.19 715.386C409.968 716.128 411.147 716.524 412.333 717.303C424.533 725.361 437.461 730.507 451.522 733.877C465.255 739.813 474.462 753.216 477.847 766.812C478.825 775.961 478.539 781.799 489.105 784.673C497.304 787.493 505.812 785.598 513.968 785.124C516.31 785.2 518.253 785.621 520.221 786.067C518.604 784.177 517.803 782.337 517.376 780.127C517.089 766.274 525.775 754.528 534.88 744.609C530.92 740.112 524.593 735.538 524.864 728.984C525.753 716.625 536.871 709.326 548.447 705.693C561.488 696.641 573.594 681.736 591.871 682.331C609.016 684.703 616.761 702.45 615.503 716.634C614.867 722.795 610.712 728.507 607.711 733.493C606.186 735.998 604.297 738.132 603.975 741.033C604.021 743.231 604.822 745.071 605.267 746.899C606.941 752.801 605.898 758.949 602.898 763.959C598.758 770.388 590.257 772.665 582.468 772.412C579.736 771.965 576.997 771.136 574.703 772.159C568.107 773.042 567.503 780.684 564.877 785.324C564.51 786.052 564.125 787.114 563.766 788.2C564.148 788.213 564.156 788.595 564.563 788.608C568.892 791.279 572.081 795.392 575.262 799.148C580.853 806.251 590.057 801.085 597.447 801.683C601.724 801.823 604.127 804.836 607.644 806.407C619.412 810.8 630.905 803.154 638.51 795.74C650.388 787.009 662.466 789.24 673.143 798.681C674.658 796.916 676.206 795.511 678.485 793.771C684.998 788.875 689.543 783.557 694.481 777.512C705.147 768.026 719.408 762.642 732.458 773.64C735.624 776.655 739.182 778.967 743.482 780.205C748.582 783.283 754.412 783.472 759.822 781.834C760.985 781.49 762.149 781.17 763.32 781.208C765.462 772.9 771.541 765.437 770.952 756.682C772.273 744.314 769.667 731.484 777.205 720.798C779.823 715.775 783.619 711.149 783.117 705.309C781.058 700.516 779.947 683.701 771.14 689.62C766.195 695.283 761.688 702.416 753.562 704.347C748.137 705.269 741.513 703.597 738.284 698.742C735.469 694.283 738.08 688.902 739.542 684.582C740.622 680.226 743.263 676.302 745.522 672.366C750.803 664.518 744.816 656.685 741.933 648.93C737.819 638.223 733.3 626.405 734.237 615.146C735.219 606.06 739.353 599.273 744.242 592.153C749.822 580.305 753.842 568.024 748.919 555.119C747.253 549.599 744.401 543.301 746.622 537.549C747.692 533.932 749.592 531.082 751.077 527.861C753.596 518.085 752.603 508.22 752.01 497.985C750.987 486.662 740.31 477.197 739.286 465.875C733.861 447.105 733.46 427.759 729.969 409.053C729.57 409.422 729.188 409.409 728.424 409.385C717.268 414.845 707.358 423.998 693.671 420.283Z" fill="#FFE0A0"/>
<path d="M674.26 889.485C680.762 885.329 684.506 878.148 690.237 873.608C695.938 867.588 704.869 866.423 710.17 860.772C713.608 857.232 716.959 850.777 714.145 846.318C711.745 842.23 705.9 841.3 701.983 840.098C696.513 838.822 691.035 837.188 685.934 834.11C679.232 829.883 672.533 824.557 670.422 817.185C668.397 812.751 667.932 808.726 668.994 804.751C665.828 801.736 662.295 799.425 658.744 797.496C654.048 795.529 649.046 797.18 644.814 799.238C639.824 802.704 636.427 806.961 631.04 809.722C621.062 815.579 607.083 816.222 597.2 808.239C590.989 808.036 585.212 810.402 578.953 809.101C571.166 807.773 567.502 800.351 562.371 795.816C560.795 794.667 559.22 793.518 557.245 792.737C555.303 792.316 553.383 792.97 551.438 793.646C547.958 793.891 545.264 795.259 541.767 795.885C534.837 797.832 527.399 796.134 521.127 793.018C515.642 791.025 510.209 791.565 504.809 792.487C493.937 793.231 479.524 791.306 473.123 781.98C470.676 776.793 470.18 771.311 469.66 765.829C467.612 760.296 465.564 754.764 461.96 750.255C456.369 743.152 448.911 739.281 440.327 737.522C428.616 734.611 417.217 728.392 406.983 721.878C399.472 715.428 393.793 722.523 386.861 725.591C382.255 727.995 376.838 729.274 372.629 732.407C366.516 736.958 362.735 742.301 359.35 748.396C352.186 758.713 351.306 771.453 348.424 783.389C345.881 792.041 341.434 802.112 348.983 810.377C352.594 815.244 355.805 820.433 358.253 825.62C359.459 828.571 362.658 831.969 359.58 834.423C356.334 845.964 349.934 856.329 341.985 865.546C340.477 867.693 338.57 870.185 335.869 871.195C336.703 873.394 337.131 875.604 337.957 877.444C339.601 881.89 341.245 886.311 342.506 890.72L342.499 890.361C345.11 904.648 359.621 911.325 370.301 919.692C380.189 929.132 391.662 938.98 393.902 952.538C394.061 960.205 391.877 967.772 388.533 974.608C388.93 975.337 388.945 976.078 388.578 976.782C390.933 978.696 392.938 980.933 394.137 983.526C398.579 991.69 394.492 1000.67 397.797 1009.16C399.799 1012.52 404.106 1014.11 406.883 1016.76C410.026 1018.68 413.891 1017.35 417.393 1018.18C422.482 1019.44 425.304 1024.28 429.634 1026.97C433.503 1027.1 437.36 1025.39 440.031 1022.92C440.352 1020.02 440.699 1017.12 441.021 1014.22C441.304 1009.48 442.355 1003.69 438.002 999.895C437.198 999.153 436.037 998.375 434.459 998.324C431.806 1000.43 430.296 1003.65 427.235 1005.75C421.863 1009.23 414.436 1006.79 410.468 1001.91C404.087 994.782 408.964 985.823 413.098 979.036C413.808 976.505 410.276 974.218 409.841 971.65C409.006 969.427 409.335 966.884 410.461 964.749C414.587 957.579 423.801 951.697 432.819 956.001C441.425 958.811 448.929 964.902 453.364 972.708C457.724 976.86 464.003 980.334 470.247 980.895C477.638 981.518 479.046 974.618 485.635 973.376C492.221 973.233 500.362 972.042 506.275 976.244C509.83 979.629 509.913 983.642 511.949 987.36C515.874 988.943 519.033 991.6 522.191 994.257C527.239 994.779 527.96 991.533 527.495 987.508C526.593 982.013 525.309 976.505 527.545 971.47C529.381 966.78 532.811 962.882 535.842 959.353C536.937 955.737 534.13 951.636 533.672 947.969C531.013 932.583 551.562 931.056 563.644 932.189C565.899 929.327 567.395 925.366 570.448 922.935C582.353 916.759 599.455 935.526 602.765 945.492C608.035 955.496 621.98 954.494 630.458 951.118C640.888 947.448 628.947 934.672 634.251 927.923C635.392 926.504 636.54 925.444 638.07 924.396C636.869 922.901 636.068 921.061 634.866 919.542C630.371 908.846 642.223 900.114 651.1 896.393C658.849 895.906 667.365 894.369 674.26 889.485Z" fill="#FFE0A0"/>
<path d="M90.7794 854.818C100.954 858.443 112.859 852.267 120.13 845.94C125.809 838.845 127.944 830.155 134.809 823.815C142.462 817.5 156.003 815.387 165.459 821.184C172.151 826.128 177.727 832.515 185.569 835.324C188.974 831.425 187.285 824.807 192.29 822.058C198.037 818.235 204.362 823.906 207.565 828.736C212.76 835.111 213.315 843.507 211.124 850.715C209.685 856.158 213.319 862.1 219.523 861.943C224.932 860.282 229.889 856.433 236.142 857.376C248.964 857.436 260.392 865.087 273.252 866.962C275.951 867.049 278.69 867.878 281.017 867.214C287.168 864.503 291.746 859.544 296.688 854.979C307.04 848.752 322.707 854.728 330.263 863.351C330.678 863.722 330.686 864.105 331.068 864.117C331.45 864.129 331.442 863.747 331.849 863.761C340.581 854.211 348.518 843.156 351.359 830.503C349.316 826.427 347.306 822.71 345.296 819.017C341.684 814.15 337.691 809.27 336.432 803.763C334.683 794.231 339.542 785.653 341.295 776.951C342.693 768.261 344.423 758.46 348.541 750.956C353.4 742.355 358.659 733.409 366.702 727.489C371.652 723.258 378.615 721.671 384.376 718.588C389.748 715.111 394.379 712.708 399.031 712.502C401.309 710.738 404.011 709.752 405.518 707.605C409.674 701.917 405.261 695.209 402.831 689.665C398.419 682.957 386.511 690.208 379.473 688.165C372.06 686.468 366.11 680.45 358.338 679.815C355.614 679.727 352.943 682.194 350.624 683.216C347.548 684.572 344.053 684.1 340.932 683.259C338.583 682.824 337.404 682.428 335.462 682.007C331.582 682.597 329.316 686.175 326.652 689C322.489 694.33 314.381 695.88 308.82 690.233C300.399 677.93 290.1 686.712 279.091 680.889C270.043 675.128 278.706 662.283 268.12 657.213C264.572 654.186 259.933 656.207 255.656 656.067C247.892 655.815 243.317 659.676 235.939 660.892C227.838 662.824 217.8 665.767 211.045 658.984C209.065 656.747 206.678 654.474 203.924 652.928C197.629 648.714 188.581 642.953 181.701 648.553C177.093 652.055 176.832 657.87 173.817 662.164C166.231 671.75 156.284 679.088 146.344 686.784C138.349 693.804 129.411 694.611 119.199 689.171C117.646 689.12 116.467 688.724 115.688 687.959C110.294 690.337 104.12 691.974 99.9341 696.206C106.58 698.976 107.895 705.94 109.95 711.831C119.773 716.9 122.667 706.779 130.014 704.106C138.522 702.187 155.697 706.04 152.8 717.235C150.597 722.629 144.024 724.611 139.83 728.484C142.607 731.128 146.516 731.971 149.668 734.27C154.387 737.335 152.947 742.754 148.334 744.8C140.26 749.263 130.102 746.402 121.609 749.038C113.935 753.156 108.638 760.263 102.937 766.283C96.8365 772.648 89.6129 780.075 87.8593 788.753C99.87 787.688 130.702 793.799 118.593 809.802C109.862 819.352 95.5776 823.636 85.2377 831.677C83.3411 833.454 80.6474 834.822 79.5293 837.339C78.826 840.228 79.2682 843.155 78.5648 846.043C83.628 847.306 87.2394 852.173 90.7794 854.818Z" fill="#FFE0A0"/>
<path d="M311.605 580.247C312.27 575.543 311.378 569.308 306.259 566.588C301.96 565.35 297.713 566.668 293.422 565.812C288.741 564.562 284.778 561.163 282.345 556.692C282.345 556.692 282.345 556.692 281.963 556.68C279.644 557.702 278.144 560.207 276.629 561.972C272.541 570.956 269.549 576.325 260.629 576.774C260.262 577.478 260.27 577.861 259.877 578.564C252.003 591.435 248.373 604.086 259.914 617.207C261.131 619.442 263.485 621.333 265.068 622.84C267.066 624.743 269.428 626.992 272.533 627.093C274.755 621.341 281.634 615.718 288.328 619.587C291.082 621.133 291.914 624.454 294.653 625.259C298.133 625.014 301.219 622.918 303.49 620.82C304.264 620.106 304.639 619.76 305.412 619.045C303.384 615.709 303.279 610.598 304.329 604.809C305.318 596.081 310.608 588.616 311.605 580.247Z" fill="#FFE0A0"/>
<path d="M236.021 551.915C238.183 562.917 250.789 570.988 262.403 569.171C267.439 567.878 268.443 559.892 271.473 556.338C273.73 553.5 276.386 550.317 280.647 549.715C280.572 546.085 281.285 542.456 278.883 539.466C276.061 534.625 270.56 531.892 266.241 528.482C262.278 525.059 258.315 521.66 255.501 517.201C250.684 509.383 251.311 502.839 254.711 497.484C249.954 492.58 244.805 488.403 238.156 486.73C234.631 484.802 231.151 485.046 227.279 486.018C223.467 489.904 223.978 496.126 226.41 500.573C228.428 504.649 232.376 507.331 234.794 511.061C239.176 516.288 240.49 523.252 239.048 529.769C234.915 536.58 233.147 544.542 236.021 551.915Z" fill="#FFE0A0"/>
<path d="M183.57 889.916C176.196 890.058 168.715 885.065 161.805 889.208C155.639 891.203 148.975 888.791 142.756 888.23C136.927 888.04 131.135 889.666 125.733 891.686C119.182 894.767 118.223 904.927 123.012 910.19C126.537 912.119 130.791 911.159 134.32 912.014C138.197 912.498 140.591 915.13 142.213 918.477C144.2 921.095 147.721 921.568 150.826 921.669C154.721 921.795 158.163 919.712 161.653 918.727C171.729 917.599 181.529 921.57 191.651 922.639C203.847 912.081 205.324 888.81 183.57 889.916Z" fill="#FFE0A0"/>
<path d="M325.984 618.641C337.389 625.193 333.789 639.301 337.099 649.243C338.803 656.601 344.356 661.866 347.224 668.905C349.206 670.043 348.852 672.586 349.305 674.796C349.312 675.154 349.32 675.513 349.327 675.895C351.239 674.859 352.769 673.811 355.097 673.171C364.345 670.178 373.05 677.741 381.282 680.944C386.33 681.467 391.358 679.816 396.001 679.227C399.1 678.97 401.449 679.405 403.814 680.58C404.173 679.493 405.321 678.433 406.866 678.125C412.193 672.475 417.105 666.429 419.686 659.591C420.781 655.975 419.55 653.023 420.27 649.753C421.718 644.716 423.943 640.397 427.373 636.499C429.248 633.648 433.906 633.8 435.806 630.95C435.715 626.579 432.104 621.712 428.197 619.771C422.734 618.853 418.103 621.256 413.048 620.376C406.406 619.062 399.383 617.735 394.252 613.2C386.304 605.28 388.053 595.146 394.105 587.681C396.379 584.461 395.907 580.078 393.497 576.73C392.273 574.136 391.846 571.927 391.793 569.371C392.398 561.729 397.328 555.35 397.169 547.683C397.101 544.387 392.779 542.075 390.032 540.887C386.092 538.563 383.278 534.104 382.805 529.721C383.39 519.883 390.675 515.394 400.804 516.821C407.03 517.74 403.399 510.7 402.924 507.415C401.956 497.526 413.853 490.992 423.196 491.296C427.847 491.089 432.973 494.168 437.212 492.492C437.129 488.479 433.955 485.082 435.018 481.107C437.545 471.714 448.754 468.809 458.097 469.113C461.577 468.868 465.494 470.069 468.951 468.726C471.645 467.358 473.942 465.26 476.635 463.868C490.048 455.569 499.338 473.008 512.153 472.685C517.97 471.061 528.659 462.649 526.189 456.387C512.576 436.611 538.161 433.816 550.435 425.814C555.385 421.607 559.556 416.635 562.956 411.28C556.269 407.793 549.608 404.282 542.177 402.943C535.554 401.271 527.375 400.647 521.844 396.457C517.11 392.651 512.33 386.672 505.704 386.099C502.606 386.356 500.739 389.565 497.623 390.203C490.301 392.877 482.416 386.797 483.029 379.513C483.72 374.81 487.539 371.282 490.959 368.124C485.873 365.763 479.995 364.473 474.917 362.494C471.796 361.653 468.246 359.723 464.766 359.968C455.491 362.96 449.087 371.845 438.161 370.034C431.56 369.461 426.037 365.629 420.522 362.18C418.572 361.377 416.604 360.955 414.677 361.25C407.714 362.861 410.978 370.605 408.727 374.924C405.728 379.934 399.172 381.534 393.35 381.703C385.186 381.795 376.243 381.146 368.408 378.719C365.37 381.89 361.943 384.691 359.288 387.898C352.423 394.238 347.946 402.828 340.667 408.797C334.95 414.076 326.865 416.725 319.098 417.57C312.547 420.627 306.418 424.437 299.901 427.877C299.501 428.222 299.501 428.222 299.119 428.21C298.337 428.542 297.574 428.517 296.395 428.121C287.91 431.139 278.073 425.353 270.025 429.817C266.549 431.518 263.496 433.972 260.421 435.328C261.69 440.119 263.723 444.911 267.294 449.037C276.772 455.909 290.872 461.117 294.227 473.256C295.473 476.948 294.011 481.268 290.536 482.969C283.214 485.643 275.487 487.229 268.967 491.743C253.22 500.348 258.098 511.08 271.124 520.979C280.572 526.394 289.299 535.056 287.948 545.943C287.657 550.325 290.891 556.612 295.956 556.777C306.414 555.662 315.021 558.495 317.964 569.165C323.736 585.033 306.924 598.688 311.9 614.173C315.908 619.769 321.669 616.662 325.984 618.641Z" fill="#FFE0A0"/>
<path d="M385.732 952.273C383.601 942.728 374.896 935.142 368.142 928.382C356.264 917.422 338.224 909.89 335.16 893.393C333.067 885.687 329.81 878.278 327.717 870.548C323.679 863.495 314.683 860.291 306.901 860.395C305.348 860.345 303.803 860.676 302.662 862.095C298.476 866.327 293.908 870.546 288.139 873.27C283.541 876.056 277.282 874.755 272.226 873.85C262.089 872.064 252.656 867.39 242.894 865.234C239.017 864.75 234.326 864.239 230.884 866.323C225.137 870.146 216.988 870.955 211.068 866.394C195.654 854.222 215.19 840.656 197.842 828.42C195.937 829.814 196.379 832.741 195.654 834.555C194.566 838.529 191.159 843.526 185.721 842.609C175.577 840.465 169.174 832.237 161.297 826.515C156.967 823.82 151.932 825.113 147.288 825.677C135.323 828.94 133.642 842.37 126.426 850.155C117.272 858.975 101.495 866.123 87.8032 860.928C83.8554 858.245 80.6741 854.49 76.7189 851.45C76.337 851.437 76.337 851.437 76.337 851.437C71.4448 859.655 63.4427 866.341 59.3471 874.943C57.8546 877.806 56.7593 881.422 58.7543 884.399C59.9708 886.634 61.5612 888.5 62.3885 890.365C66.0422 898.503 58.459 906.992 49.4682 905.244C38.1608 903.42 28.643 911.846 26.5053 921.633C26.2595 928.189 34.7446 925.171 38.2019 923.828C42.0819 923.238 46.366 923.735 50.2836 924.961C55.7588 927.693 59.7896 934.388 59.9103 940.215C59.2223 943.845 58.4782 945.992 56.9857 948.856C53.1819 953.124 52.8529 955.667 58.7502 959.128C63.4389 960.737 68.8263 958 73.5303 960.349C82.2044 966.455 69.0187 985.717 68.8031 993.729C68.901 998.458 73.193 999.338 75.9518 1002.34C87.4783 1014.74 70.9372 1021.84 59.2177 1018.55C56.0792 1018.09 53.7325 1016.56 51.3603 1015.02C48.262 1015.28 46.3877 1018.13 46.0407 1021.03C43.8983 1029.36 48.364 1038.63 44.2609 1046.87C40.4942 1052.93 35.5416 1058.24 31.3862 1063.95C27.2153 1068.92 21.4536 1072 18.0867 1077.72C13.5796 1084.87 12.2231 1094.3 15.0877 1102.42C21.3394 1103.34 27.5507 1103.54 33.3427 1101.91C39.1346 1100.29 43.7429 1096.79 49.1122 1094.41C60.3063 1090.76 58.2885 1086.69 58.0847 1076.85C57.5367 1068.81 59.5584 1054.65 71.7004 1058.7C84.5982 1062.39 89.926 1076.43 90.9491 1087.75C91.0476 1092.5 90.7154 1096.12 92.3768 1100.18C93.998 1103.53 95.2038 1106.48 97.2243 1109.46C99.5864 1111.73 101.981 1114.36 102.838 1117.66C106.318 1117.42 109.824 1117.17 113.289 1116.19C118.186 1109.42 116.836 1099.52 122.919 1093.54C128.261 1088.6 135.575 1085.55 142.912 1083.62C143.91 1075.27 141.379 1066.07 145.904 1058.56C151.522 1048.52 163.782 1059.5 166.275 1066.88C167.499 1069.47 168.69 1071.69 169.15 1074.25C170.394 1079.04 168.954 1084.46 173.307 1088.26C174.904 1090.48 178.066 1092.04 180.337 1089.94C187.232 1085.06 193.37 1080.51 198.664 1074.5C201.837 1058.18 196.869 1043.08 218.083 1036.85C222.3 1034.07 226.119 1030.54 229.953 1027.76C233.006 1025.3 238.065 1025.11 240.305 1021.53C243.313 1016.9 244.356 1010.73 250.547 1008.74C261.326 1004.72 272.74 1011.65 278.751 1020.61C282.384 1026.55 282.181 1036.38 274.859 1039.05C270.612 1040.37 265.939 1039.5 261.288 1039.71C252.41 1043.43 253.044 1054.38 248.122 1061.14C246.637 1064.39 243.584 1066.84 242.092 1069.71C242.16 1072.98 247.2 1073.14 249.932 1073.61C256.183 1074.53 263.136 1073.66 268.652 1077.13C274.16 1080.22 273.132 1087.11 276.329 1091.61C280.216 1091.35 283.684 1089.29 286.337 1087.18C291.335 1084.08 295.902 1079.83 299.699 1075.23C302.317 1070.21 302.945 1063.67 307.935 1060.18C309.839 1058.78 311.777 1057.75 313.292 1055.98C312.737 1047.59 306.798 1043.39 300.481 1038.07C295.724 1033.17 292.49 1026.88 292.729 1019.97C293.266 1009.05 296.53 997.13 306.897 991.619C314.196 987.847 324.717 988.548 330.682 995.305C335.867 1002.42 339.942 1011.29 338.945 1019.63C338.699 1026.19 334.169 1032.25 335.866 1039.22C336.72 1043.62 343.017 1046.74 347.653 1045.81C349.527 1042.94 347.869 1037.8 348.59 1034.53C348.896 1030.89 350.756 1027.32 352.266 1024.08C353.298 1018.64 357.11 1014.76 362.969 1016.4C372.357 1018.91 374.945 1012.43 372.834 1005.08C372.025 1002.86 372.324 998.856 368.803 998.384C359.478 997.698 346.252 996.552 346.773 984.898C345.723 971.02 360.068 969.673 371.749 971.127C374.473 971.216 377.212 972.045 379.544 972.837C379.921 971.393 380.654 969.961 381.421 968.888C384.039 963.889 386.227 957.755 385.732 952.273ZM201.751 922.586C199.462 925.065 197.21 929.36 193.731 929.629C194.52 929.654 194.902 929.667 195.276 929.297C194.112 929.641 192.949 929.961 191.796 929.566C191.389 929.552 191.389 929.552 190.999 929.158C181.674 928.496 173.061 925.304 164.107 925.371C159.097 926.664 154.092 929.437 148.24 928.148C142.029 927.946 136.505 924.115 134.057 918.927C129.384 918.059 124.366 918.97 120.037 916.299C106.625 907.461 111.238 885.749 126.724 882.983C136.739 878.917 147.273 881.456 157.387 882.143C160.885 881.541 163.937 879.086 167.425 879.199C171.32 879.326 174.83 880.538 178.74 881.382C184.984 881.943 191.57 881.799 197.468 885.285C212.001 893.037 210.475 912.678 201.751 922.586Z" fill="#FFE0A0"/>
</svg>
